# xmcd
#
# Track frame offsets: 
#        150
#        23785
#        38410
#        50429
#        63461
#        76380
#        93012
#        109072
#        120547
#        138435
#        151242
#        163062
#        176184
#        189579
#        201673
#        214018
#        228648
#        241213
#        254537
#        266734
#
# Disc length: 3706 seconds
#
# Revision: 4
# Processed by: cddbd v1.5.2PL0 Copyright (c) Steve Scherf et al.
# Submitted via: ExactAudioCopyFreeDBPlugin 1.0
#
DISCID=190e7814
DTITLE=B.B. King - B.B. King:  Eight Classic Albums [Real Gone Music]
DYEAR=2014
DGENRE=Blues
TTITLE0=You Done Lost Your Good Thing Now
TTITLE1=Mr. Pawn Broker
TTITLE2=Understand
TTITLE3=Someday Baby
TTITLE4=Driving Wheel
TTITLE5=Walking Dr. Bill
TTITLE6=My Own Fault, Baby
TTITLE7=Cat Fish Blues
TTITLE8=Hold That Train
TTITLE9=Please Set the Date
TTITLE10=Easy Listening Blues
TTITLE11=Blues for Me
TTITLE12=Night Long
TTITLE13=Confessin'
TTITLE14=Don't Touch
TTITLE15=Slow Walk
TTITLE16=Walkin'
TTITLE17=Hully Gully
TTITLE18=Shoutin' the Blues
TTITLE19=Rambler
EXTD=
EXTT0=
EXTT1=
EXTT2=
EXTT3=
EXTT4=
EXTT5=
EXTT6=
EXTT7=
EXTT8=
EXTT9=
EXTT10=
EXTT11=
EXTT12=
EXTT13=
EXTT14=
EXTT15=
EXTT16=
EXTT17=
EXTT18=
EXTT19=
PLAYORDER=
